#N canvas 0 22 450 300 10;
#X obj 76 66 notein;
#X obj 74 135 noteout;
#X obj 34 102 + 14;
#X obj 197 198 bng 15 250 50 0 empty empty empty 17 7 0 10 -262144
-1 -1;
#X obj 70 178 random 1;
#X connect 0 0 2 0;
#X connect 0 0 3 0;
#X connect 0 1 1 1;
#X connect 0 2 1 2;
#X connect 2 0 1 0;
#X connect 3 0 4 0;
#X connect 4 0 2 1;
